/* XPM */
static char *image_xpm[] = {
/* width height ncolors chars_per_pixel */
"32 32 307 2",
"   c #404040",
" . c #101010",
" + c #808080",
" @ c #808069",
" # c #808068",
" $ c #404033",
" % c #e0e0e0",
" & c #202020",
" * c #303030",
" = c #714200",
" - c #a08100",
" ; c #9c7e00",
" > c #9c7d00",
" , c #dbcf00",
" ' c #ffff00",
" ) c #fdfd00",
" ! c #404017",
" ~ c #f7f700",
" { c #a0a008",
" ] c #f2f200",
" ^ c #7e7e08",
" / c #e4d67d",
" ( c #ffe35b",
" _ c #66660d",
" : c #433b1c",
" < c #ccb136",
" [ c #ebe8ae",
" } c #a7a705",
" | c #151513",
" 1 c #3f3f3f",
" 2 c #414141",
" 3 c #56560a",
" 4 c #d2d204",
" 5 c #d6d6ac",
" 6 c #ffef8c",
" 7 c #3c3a1a",
" 8 c #adadad",
" 9 c #7f7f7f",
" 0 c #818181",
" a c #f9f9f9",
" b c #6f6f0d",
" c c #25241c",
" d c #ffdf4c",
" e c #6f6f0e",
" f c #7c6815",
" g c #423f08",
" h c #fffcbd",
" i c #3b392c",
" j c #1a1a19",
" k c #5a4e1f",
" l c #7e7e07",
" m c #747412",
" n c #372c1d",
" o c #ffdb39",
" p c #545444",
" q c #7a7a10",
" r c #e8e801",
" s c #464610",
" t c #3b3b3b",
" u c #161513",
" v c #363119",
" w c #a1990b",
" x c #dedede",
" y c #e2e2e2",
" z c #cece06",
" A c #a6a47c",
" B c #f0c71a",
" C c #6c6711",
" D c #6d6d6d",
" E c #ffd72a",
" F c #1e1e13",
" G c #a9890b",
" H c #d0ba4f",
" I c #d9c55c",
" J c #ffffff",
" K c #2b2714",
" L c #424242",
" M c #4d4d3f",
" N c #111111",
" O c #b7a13a",
" P c #fde569",
" Q c #8e8e72",
" R c #353311",
" S c #544c26",
" T c #aa8b0c",
" U c #a5a505",
" V c #bfa52d",
" W c #f0e184",
" X c #1c1b17",
" Y c #2f2f13",
" Z c #909074",
" ` c #e6d060",
".  c #202015",
".. c #151515",
".+ c #6b6719",
".@ c #1b1b18",
".# c #1f1f1f",
".$ c #2d2d27",
".% c #7d7d65",
".& c #676214",
".* c #1a1a1a",
".= c #d6c35c",
".- c #acacac",
".; c #2e2e12",
".> c #d2d203",
"., c #7f6a16",
".' c #573403",
".) c #9a9a08",
".! c #5b4b05",
".~ c #1a1915",
".{ c #685710",
".] c #cda812",
".^ c #3f3f15",
"./ c #5d4c06",
".( c #191916",
"._ c #554918",
".: c #1c1c1c",
".< c #b8a23b",
".[ c #252525",
".} c #181818",
".| c #909006",
".1 c #65650d",
".2 c #828282",
".3 c #9f9f08",
".4 c #cbb343",
".5 c #7c7c64",
".6 c #242424",
".7 c #856d0a",
".8 c #262626",
".9 c #ffe76a",
".0 c #c2c29c",
".a c #2b2b2b",
".b c #dfdfdf",
".c c #60531d",
".d c #3d3d3d",
".e c #f3f301",
".f c #747413",
".g c #121212",
".h c #bd9e1d",
".i c #8f8b63",
".j c #4c4c3e",
".k c #e1e104",
".l c #fefecb",
".m c #555137",
".n c #9d9662",
".o c #a0975e",
".p c #b4b406",
".q c #bebe99",
".r c #fff8ae",
".s c #e2bf26",
".t c #232323",
".u c #585029",
".v c #98900d",
".w c #44441b",
".x c #272727",
".y c #302e26",
".z c #989807",
".A c #5a4f24",
".B c #43431a",
".C c #909008",
".D c #646411",
".E c #564e28",
".F c #fdf6ac",
".G c #424135",
".H c #9f965d",
".I c #cece07",
".J c #e4e4b7",
".K c #45451c",
".L c #6c6c6c",
".M c #ffec7d",
".N c #ffffcc",
".O c #a0975d",
".P c #5a5027",
".Q c #f6f6c5",
".R c #cdcd06",
".S c #909009",
".T c #a1934a",
".U c #f4f4f4",
".V c #5b5430",
".W c #e3e301",
".X c #574c1b",
".Y c #1e1e1e",
".Z c #545036",
".` c #b8b806",
"+  c #222222",
"+. c #ffce08",
"++ c #161616",
"+@ c #332e16",
"+# c #dac55c",
"+$ c #cdaf2b",
"+% c #e3e3b6",
"+& c #282828",
"+* c #806c17",
"+= c #bfbf04",
"+- c #3a3a3a",
"+; c #a5a37b",
"+> c #ccae2b",
"+, c #797140",
"+' c #9e9763",
"+) c #6d6817",
"+! c #797143",
"+~ c #d6d6d6",
"+{ c #2d2816",
"+] c #ffd31b",
"+^ c #131313",
"+/ c #e4e401",
"+( c #262624",
"+_ c #1f1f14",
"+: c #9f965c",
"+< c #bfbf99",
"+[ c #1d1d12",
"+} c #252523",
"+| c #3c3c13",
"+1 c #7d7d07",
"+2 c #908d64",
"+3 c #7a7241",
"+4 c #171715",
"+5 c #d7d706",
"+6 c #666612",
"+7 c #313131",
"+8 c #363224",
"+9 c #3c3c3c",
"+0 c #64640d",
"+a c #272725",
"+b c #4d4622",
"+c c #8f7d2e",
"+d c #544711",
"+e c #3c3b2e",
"+f c #414118",
"+g c #4f4f0b",
"+h c #333110",
"+i c #2e2e2e",
"+j c #242323",
"+k c #4f4b33",
"+l c #212121",
"+m c #2d2d28",
"+n c #9e955c",
"+o c #e2b708",
"+p c #f0cb28",
"+q c #545408",
"+r c #f2f2c2",
"+s c #62620b",
"+t c #1a1a17",
"+u c #2c2c2c",
"+v c #919106",
"+w c #e5e501",
"+x c #1b1b1b",
"+y c #726d18",
"+z c #cfc402",
"+A c #7c7340",
"+B c #ceac20",
"+C c #191919",
"+D c #7c7c11",
"+E c #292929",
"+F c #181715",
"+G c #574f2c",
"+H c #e4e4b6",
"+I c #757514",
"+J c #171716",
"+K c #4b4420",
"+L c #282826",
"+M c #907f2f",
"+N c #1b1b10",
"+O c #4e4e0a",
"+P c #412d12",
"+Q c #27261e",
"+R c #545445",
"+S c #fff39b",
"+T c #a2944c",
"+U c #44410b",
"+V c #e2b709",
"+W c #f8f8f8",
"+X c #555509",
"+Y c #3b382a",
"+Z c #717110",
"+` c #be9f1d",
"@  c #37352a",
"@. c #613d0b",
"@+ c #322a1f",
"@@ c #6f6f6f",
"@# c #5f3803",
"@$ c #959370",
"@% c #e1e1e1",
"@& c #e6e601",
"@* c #e4d67e",
"@= c #1e1e1b",
"@- c #b3b306",
"@; c #c0a62e",
"@> c #70700f",
"@, c #727211",
"@' c #7e7541",
"@) c #46460f",
"@! c #e5e5b7",
"@~ c #594f27",
"@{ c #8f8f07",
"@] c #6e6e6e",
"@^ c #141414",
"@/ c #ae9e50",
"@( c #181815",
"@_ c #1d1d1d",
"@: c #8f8f06",
"@< c #1a1a18",
"@[ c #5f3903",
"@} c #171717",
"@| c #6b6b58",
"@1 c #4d4933",
"@2 c #524c2e",
" J J J J J J J J J J.U 8 D  .Y . ..Y   D.-.U J J J J J J J J J J",
" J J J J J J J J.b D.} M Q+<+%+r+r+%.q Q.j@} D x J J J J J J J J",
" J J J J J J a 0@<.%@!.N.N.N.N.Q.Q.N.N.N.N@!.5@< + a J J J J J J",
" J J J J J y+9+R.J.N.N.N.l.0@|@=@=@|.0.l.N.N.N+H p t@% J J J J J",
" J J J J+~.8 Z.N.N.N 5 @+m@^......@^@^.$ # 5.N.N.N Z.[+~ J J J J",
" J J J@%.[ A h [@$.G....++@}@}@}@}@}++....@^ $@$ [ h+;+j % J J J",
" J J+W t+2.r.F+e@^..@}.}+C.*.*.*.*.*+C.}@}..@^+^ i.F.r.i+-+W J J",
" J J +.m+S+S+'..++.}+C+x.:.:@_@_@_.:.:+x+C.}++..+^.n+S+S.Z 9 J J",
" J % X@* 6 W+Q+++k+n+:.H.O.o.o.o.o.o@ @_.:.*.}++.. c W 6 /.~.b J",
" J D@'.M.M+3++.}+!.M.M.M.M.M.M.M.M.M@1.#.Y.:.*.}++@^+,.M.M+A D J",
".U j `.9+#.(.}.*@2.T.=.9.9.9.9 P@/+T+Y+l &.Y.:.*.}..@( I.9 `+J.U",
" 8+b ( (.E@}+C.:.Y &.V ( ( ( ( H.x.8.[.t+  &.Y.:+C@}.. S ( (+K.-",
" D+M d.<...}+x@_.#+l+G d d d d.4+E+&.x.[.t+l.#@_+x.}..+^ O d+c.L",
"  @; o v+++C.:.Y+l+ .u o o o o <.a.a+E.x.[+ +l.Y.:+C++@^+@ o V 1",
"+l.s E+{@}.*.:.#+l.t@~ E E E E+>+i+u.a+&.8.t+l.#.:.*@}@^ K E.s.#",
"+^+p E.X@}.*@_.#+ .6.P E E E E+$ *+i.a+E.x.6+ .#@_.*@}..._ E+p N",
"+^ B+]+*@}.*@_.#+ .6.A+]+]+]+]+B+7+i+u+E.y+`.h.c@_.*@}...,+] B N",
"+l+V+. T@}.*@_.#+ .6 k+.+.+.+..] *+i.a+E+8+.+. f@_.*@}.. G+.+o.#",
" 2.' =@[@}.*.:.#+l.t n = = = =@.+i+u.a+&@+ = =+P.:.*@}@^@# =.' 1",
" D./ - ;+F+C.:.Y+l+  : - - - -.7.a.a+E.x.{ - -+d.:+C++ u > -.!.L",
" 8+U , , R.}+x@_ 7.& w , , , ,+z+y.++).v , , , C+x.}..+h , , g 8",
".U.@@& '+0@}+C.:+D ' ' ' ' ' ' ' ' ' ' ' ' ' ' q+C@}..+s '@&@(.U",
" J@@ ^ '.)...}.*+6 z.I ) '.k+5 ' '+5.k ' ) z.R.D.}..@^.z '+1 D J",
" J % F+/ '.S+4.}.*.:.Y.e '+I.K ' '.w+I '.e.:.*.}++ |.C '+/+N % J",
" J J.2 3 ' '.p. .}.*.:.e '.f.B ' '.B m '.e.*.}+++_@- ' '+q 0 J J",
" J J a.d+v ' ' 4 Y.}+C.e '@,+f ' ' !@, '.e.}++.;.> ' '@:+9 a J J",
" J J J@%+a } ' ' r s@}.e '+Z.^ ' '.^@> '.e..@) r ' ' U+}@% J J J",
" J J J J+~+L+v ' ' ~ _.e ' e+| ' '+| b '.e.1 ~ ' '.|+(+~ J J J J",
" J J J J J y.d 3+/ ' ' ' '.` { ' '.3.` ' ' ' '+/+X+9 y J J J J J",
" J J J J J J a 0+[ ^+w ' ' ' ' ' ' ' ' ' '+w l+N 0 a J J J J J J",
" J J J J J J J J.b@@.@+g@{+=.W ] ].W+=@{+O+t D.b J J J J J J J J",
" J J J J J J J J J J.U 8@] L &.g.g & 2@] 8.U J J J J J J J J J J",
};