/* XPM */
static char *image_xpm[] = {
/* width height ncolors chars_per_pixel */
"16 16 161 2",
"   c #d0d0d0",
" . c #606058",
" + c #866000",
" @ c #896200",
" # c #886100",
" $ c #855f00",
" % c #e4e400",
" & c #f8f800",
" * c #eded00",
" = c #6d663f",
" - c #c7c703",
" ; c #f7f7f7",
" > c #787861",
" , c #797965",
" ' c #62625a",
" ) c #7c7c08",
" ! c #ac9e52",
" ~ c #b7b706",
" { c #252422",
" ] c #11110f",
" ^ c #b4b490",
" / c #9d9d05",
" ( c #8f8a05",
" _ c #221d11",
" : c #9c8933",
" < c #787867",
" [ c #ae962e",
" } c #b8b808",
" | c #111110",
" 1 c #e8e801",
" 2 c #151514",
" 3 c #9d9d09",
" 4 c #bc9b13",
" 5 c #f2c610",
" 6 c #9a9a7b",
" 7 c #978f59",
" 8 c #ffffff",
" 9 c #ffd010",
" 0 c #111111",
" a c #9e8c35",
" b c #545114",
" c c #6e6b65",
" d c #ae9a41",
" e c #2d2d2d",
" f c #f9f9c7",
" g c #1f1f1f",
" h c #7a7a67",
" i c #c2bb05",
" j c #1a1a1a",
" k c #9a9157",
" l c #c8c803",
" m c #1d1d15",
" n c #e6cb4c",
" o c #9b9b7c",
" p c #aaaa06",
" q c #d9cc7b",
" r c #2f2f2f",
" s c #1c1c1c",
" t c #a6a009",
" u c #8d8802",
" v c #c7aa28",
" w c #807c05",
" x c #242424",
" y c #636339",
" z c #bc9b15",
" A c #e4de9b",
" B c #7c6b1f",
" C c #c2bc06",
" D c #c9ab2a",
" E c #969607",
" F c #877629",
" G c #ffd932",
" H c #5d5d4c",
" I c #725308",
" J c #161615",
" K c #75746e",
" L c #706124",
" M c #e7c532",
" N c #f9ea8c",
" O c #b6b606",
" P c #7c6e2c",
" Q c #77766f",
" R c #767672",
" S c #979708",
" T c #0d0d0d",
" U c #6d5e21",
" V c #ddddb1",
" W c #fff090",
" X c #a8a804",
" Y c #131312",
" Z c #777773",
" ` c #f2c50f",
".  c #222222",
".. c #796b29",
".+ c #161616",
".@ c #efefbf",
".# c #a68f29",
".$ c #ffe050",
".% c #494633",
".& c #6c510c",
".* c #a7a10a",
".= c #777766",
".- c #e6bd13",
".; c #757571",
".> c #767352",
"., c #131313",
".' c #684d07",
".) c #dedeb1",
".! c #171715",
".~ c #cdc276",
".{ c #171616",
".] c #777764",
".^ c #1c170b",
"./ c #504c31",
".( c #74736c",
"._ c #a0a00b",
".: c #b5b591",
".< c #e4de9c",
".[ c #6d6d5d",
".} c #4f4d10",
".| c #9c9c04",
".1 c #ffe86e",
".2 c #2c2a23",
".3 c #84840b",
".4 c #e5e501",
".5 c #cdc176",
".6 c #777762",
".7 c #0f0f0f",
".8 c #292929",
".9 c #eeee01",
".0 c #d1d1d1",
".a c #cbc076",
".b c #706841",
".c c #b9b908",
".d c #e5d166",
".e c #d9cd7b",
".f c #815d02",
".g c #b5af08",
".h c #f8f8f8",
".i c #70701e",
".j c #9c935a",
".k c #100f0f",
".l c #b7a750",
".m c #b9a952",
".n c #523f0f",
".o c #787554",
".p c #747470",
".q c #70701f",
".r c #65653b",
".s c #635e42",
".t c #79681b",
".u c #141414",
".v c #545035",
".w c #f2e48a",
".x c #777670",
".y c #1a1a12",
".z c #5c5c4b",
".A c #706d67",
".B c #86860d",
".C c #ae9119",
".D c #827e08",
" 8 8 8 8   R.[ > >.[.p   8 8 8 8",
" 8 8 ; Z o f.@ o o.@ f 6.; ; 8 8",
" 8.h '.).: H 2.7.7 Y.z ^ V . ; 8",
" 8.x.<.o 0.u.+.+.+.u 0 T.> A K 8",
".0.j.e.! 7.5.~.~.~.2.+., ] q k  ",
" Q N.v.+.%.a W.w.s { s.+ 0./ N.(",
".b.m.u j g !.1.d.8 x g j.u T.l =",
" P a.+ s.  d.$ n e.8.  s.+.7 :..",
" B D.+ s.  [ G M r.8 F.#.+.7 v.t",
" L 5.{ s. .C 9.- e.8 z 4.+.k ` U",
".A + _ j.n.f @ #.& I @.'.u.^ $ c",
".0 (.D J b.* C.g.g i t.} | w u  ",
" 8 ,.4 p m.B.c._._ }.3.y X %.6 8",
" 8.h.r.4 l S ~ 3 3 O E - % y ; 8",
" 8 8.h h / &.9 1 1 * &.|.].h 8 8",
" 8 8 8 8.0 <.q ) ).i.=.0 8 8 8 8",
};