/* XPM */
static char *image_xpm[] = {
/* width height ncolors chars_per_pixel */
"64 64 516 2",
"   c #404035",
" . c #b0b0b0",
" + c #202020",
" @ c #303030",
" # c #663300",
" $ c #7d5200",
" % c #957100",
" & c #ac9100",
" * c #c4b000",
" = c #d2c600",
" - c #dbcf00",
" ; c #ffff00",
" > c #c0c00c",
" , c #fdfd00",
" ' c #fbfb00",
" ) c #f7f700",
" ! c #fafa00",
" ~ c #fcfc00",
" { c #f3f300",
" ] c #40400b",
" ^ c #101010",
" / c #5e5315",
" ( c #b9b995",
" _ c #3d3a2c",
" : c #ffea76",
" < c #c7c706",
" [ c #413a19",
" } c #99990e",
" | c #392a0c",
" 1 c #c7c709",
" 2 c #585849",
" 3 c #d9c660",
" 4 c #383811",
" 5 c #51510a",
" 6 c #fff298",
" 7 c #9a852a",
" 8 c #66660d",
" 9 c #302e27",
" 0 c #e7e701",
" a c #2b2b14",
" b c #12120d",
" c c #9e9e7f",
" d c #806d05",
" e c #c4c408",
" f c #816c19",
" g c #878114",
" h c #ebe8ae",
" i c #3b3824",
" j c #4f4f41",
" k c #817c54",
" l c #a7a705",
" m c #c9c907",
" n c #151513",
" o c #787147",
" p c #ffcd04",
" q c #191914",
" r c #d9c96c",
" s c #303029",
" t c #b8b804",
" u c #646410",
" v c #f0f001",
" w c #c8c804",
" x c #444336",
" y c #e8dc8b",
" z c #59590e",
" A c #ffe257",
" B c #211e15",
" C c #f2f2f2",
" D c #ffef8c",
" E c #e7e703",
" F c #d6d606",
" G c #666666",
" H c #2a2a2a",
" I c #6a6a17",
" J c #181816",
" K c #9e9459",
" L c #e7e7b9",
" M c #5c5c5c",
" N c #6e5e19",
" O c #595843",
" P c #ffdf4c",
" Q c #b3b305",
" R c #333025",
" S c #3e3a28",
" T c #343226",
" U c #fffcbd",
" V c #7a6f14",
" W c #505042",
" X c #111110",
" Y c #2a2924",
" Z c #1a1a13",
" ` c #c4c403",
".  c #6e6015",
".. c #e8e801",
".+ c #45422e",
".@ c #3b3721",
".# c #ffd41f",
".$ c #1a1a0d",
".% c #f3f3f3",
".& c #4c4c0f",
".* c #695f2c",
".= c #594d18",
".- c #e2e2e2",
".; c #8c7926",
".> c #fffec5",
"., c #4d4d10",
".' c #e3e302",
".) c #5a2f05",
".! c #f7f7c6",
".~ c #f3f3c3",
".{ c #62620f",
".] c #776d37",
".^ c #a89805",
"./ c #6a5f2c",
".( c #5d4805",
"._ c #8b7b2f",
".: c #fdec84",
".< c #3e3e3e",
".[ c #12120f",
".} c #9b8524",
".| c #ffffff",
".1 c #3e3b2d",
".2 c #9b9b06",
".3 c #1c1a12",
".4 c #fce97b",
".5 c #836f18",
".6 c #9f9f07",
".7 c #f2ea9f",
".8 c #504d36",
".9 c #e4b805",
".0 c #292821",
".a c #aeae8d",
".b c #e9e9e9",
".c c #696909",
".d c #3a3a31",
".e c #cbcb04",
".f c #161613",
".g c #2d2d2d",
".h c #8a855c",
".i c #806b18",
".j c #816d1a",
".k c #949412",
".l c #a2a208",
".m c #3a3723",
".n c #f3db62",
".o c #666613",
".p c #151515",
".q c #998631",
".r c #9b8f4c",
".s c #ffd626",
".t c #b4b38c",
".u c #1b1b18",
".v c #241b12",
".w c #1f1f1f",
".x c #8b7d3b",
".y c #b9ab5d",
".z c #afac7f",
".A c #fff49f",
".B c #636310",
".C c #bcbc0a",
".D c #b3b304",
".E c #1a1a1a",
".F c #b3ae7b",
".G c #7c7c0b",
".H c #99990d",
".I c #1c1c0c",
".J c #f2f201",
".K c #cdcdcd",
".L c #f7df63",
".M c #ffda35",
".N c #3a382a",
".O c #3b392b",
".P c #24231b",
".Q c #a3a3a3",
".R c #b8b894",
".S c #a4a072",
".T c #7b7b7b",
".U c #332e19",
".V c #221910",
".W c #3e3e0b",
".X c #343434",
".Y c #6c6816",
".Z c #98980d",
".` c #3d3d33",
"+  c #797145",
"+. c #aaaa06",
"++ c #5e3f03",
"+@ c #1d1d1a",
"+# c #cbcbcb",
"+$ c #c7c705",
"+% c #ebe8af",
"+& c #6d643a",
"+* c #41410b",
"+= c #353535",
"+- c #2f2f2f",
"+; c #b6b604",
"+> c #3b3b0b",
"+, c #e2e205",
"+' c #252513",
"+) c #191916",
"+! c #d9c867",
"+~ c #1c1c1c",
"+{ c #c8c807",
"+] c #c4c192",
"+^ c #d9d9ae",
"+/ c #161614",
"+( c #252525",
"+_ c #e7e7e7",
"+: c #434338",
"+< c #4f3a14",
"+[ c #433f2d",
"+} c #574116",
"+| c #858585",
"+1 c #181818",
"+2 c #403918",
"+3 c #806c19",
"+4 c #989898",
"+5 c #5d5d5d",
"+6 c #828282",
"+7 c #9f9f08",
"+8 c #333333",
"+9 c #bfb366",
"+0 c #292912",
"+a c #3f3f34",
"+b c #aaaa07",
"+c c #242424",
"+d c #676715",
"+e c #76760b",
"+f c #262626",
"+g c #8b7b36",
"+h c #7a7140",
"+i c #d7c052",
"+j c #2b2b2b",
"+k c #514925",
"+l c #3d3d3d",
"+m c #d7af0d",
"+n c #f3f301",
"+o c #c3c305",
"+p c #0c0c0c",
"+q c #b9b904",
"+r c #868686",
"+s c #846f19",
"+t c #5c5738",
"+u c #776c36",
"+v c #c4c08d",
"+w c #806d06",
"+x c #3f3f12",
"+y c #7e7812",
"+z c #fefecb",
"+A c #686855",
"+B c #8c7822",
"+C c #a8a805",
"+D c #686815",
"+E c #2e2721",
"+F c #c9c904",
"+G c #868609",
"+H c #b7a241",
"+I c #61610f",
"+J c #736422",
"+K c #ffe45f",
"+L c #fff8ae",
"+M c #1a1a15",
"+N c #232323",
"+O c #ffdc3d",
"+P c #9e9e05",
"+Q c #5a4913",
"+R c #8c7a2c",
"+S c #161615",
"+T c #d9d905",
"+U c #272727",
"+V c #ebeb01",
"+W c #1c1c0d",
"+X c #a6a686",
"+Y c #4f4408",
"+Z c #594509",
"+` c #988637",
"@  c #ebbf0c",
"@. c #7a7143",
"@+ c #646411",
"@@ c #797979",
"@# c #342f1a",
"@$ c #fbca04",
"@% c #b59f3a",
"@& c #848484",
"@* c #626210",
"@= c #bcbc04",
"@- c #323232",
"@; c #6f6613",
"@> c #ffe666",
"@, c #cece07",
"@' c #e4e4b7",
"@) c #99852e",
"@! c #332c20",
"@~ c #3c3a2b",
"@{ c #696908",
"@] c #f4f401",
"@^ c #3d3d10",
"@/ c #0d0d0d",
"@( c #656565",
"@_ c #635016",
"@: c #655d35",
"@< c #efd861",
"@[ c #8a8a07",
"@} c #3c3c0c",
"@| c #ffec7d",
"@1 c #ffffcc",
"@2 c #b4b405",
"@3 c #9a8427",
"@4 c #373711",
"@5 c #1b1b14",
"@6 c #66660e",
"@7 c #d6c052",
"@8 c #979797",
"@9 c #8c7929",
"@0 c #9e9e06",
"@a c #c6c608",
"@b c #ffd82e",
"@c c #f4f4f4",
"@d c #988634",
"@e c #b09e02",
"@f c #ffdd44",
"@g c #171714",
"@h c #bb9f25",
"@i c #816305",
"@j c #302b17",
"@k c #d3b221",
"@l c #1e1e1e",
"@m c #c8c806",
"@n c #fff6a7",
"@o c #222222",
"@p c #1b1a15",
"@q c #161616",
"@r c #959595",
"@s c #ebc116",
"@t c #8d7516",
"@u c #f4d649",
"@v c #b0ac7f",
"@w c #442c14",
"@x c #8d761a",
"@y c #999874",
"@z c #907e29",
"@A c #9b8625",
"@B c #282828",
"@C c #e8e8e8",
"@D c #50500a",
"@E c #272722",
"@F c #3f3f0c",
"@G c #7b7b0b",
"@H c #97873b",
"@I c #1d1b13",
"@J c #dcdc02",
"@K c #c9c90a",
"@L c #f9d842",
"@M c #212012",
"@N c #b4b404",
"@O c #fffab6",
"@P c #3b3b31",
"@Q c #ffcf0c",
"@R c #ffee85",
"@S c #a8994b",
"@T c #848469",
"@U c #5a5a0f",
"@V c #9c831f",
"@W c #3c3c0b",
"@X c #1d1d0d",
"@Y c #0e0e0e",
"@Z c #99997c",
"@` c #131313",
"#  c #878787",
"#. c #636311",
"#+ c #17170d",
"#@ c #70705b",
"## c #201e14",
"#$ c #98980c",
"#% c #4f4c35",
"#& c #6a6a09",
"#* c #594609",
"#= c #e4e401",
"#- c #fdfdca",
"#; c #a69648",
"#> c #242412",
"#, c #ffd217",
"#' c #34300b",
"#) c #b7b704",
"#! c #e4be1d",
"#~ c #a5a5a5",
"#{ c #b8ab5c",
"#] c #171715",
"#^ c #c6c60a",
"#/ c #6d4905",
"#( c #0f0f0d",
"#_ c #eed967",
"#: c #666612",
"#< c #313131",
"#[ c #3c3926",
"#} c #eed867",
"#| c #3a2a0d",
"#1 c #8a8a70",
"#2 c #3c3c3c",
"#3 c #ebebbc",
"#4 c #e6e603",
"#5 c #323222",
"#6 c #b5b591",
"#7 c #141412",
"#8 c #75750b",
"#9 c #2e2e2e",
"#0 c #947e05",
"#a c #82820e",
"#b c #ffe86e",
"#c c #fdd834",
"#d c #212121",
"#e c #3e3c2e",
"#f c #5e5e5e",
"#g c #504508",
"#h c #191813",
"#i c #5e3f04",
"#j c #d9cb73",
"#k c #1c1c19",
"#l c #baba04",
"#m c #d2d2a8",
"#n c #696955",
"#o c #1a1a17",
"#p c #2c2c2c",
"#q c #11100c",
"#r c #a8a80b",
"#s c #3e3e34",
"#t c #666614",
"#u c #676714",
"#v c #ad9016",
"#w c #1b1b1b",
"#x c #fef9b5",
"#y c #5d4806",
"#z c #232214",
"#A c #686814",
"#B c #524a25",
"#C c #191919",
"#D c #b1b1b1",
"#E c #645813",
"#F c #6e6e5b",
"#G c #0f0f0f",
"#H c #aeae8c",
"#I c #9b8424",
"#J c #292929",
"#K c #1c1c14",
"#L c #e6e602",
"#M c #dad9a9",
"#N c #373425",
"#O c #ad8f15",
"#P c #3f3c29",
"#Q c #86860a",
"#R c #171716",
"#S c #c0b366",
"#T c #83830f",
"#U c #3b3825",
"#V c #726421",
"#W c #5a4e19",
"#X c #562c02",
"#Y c #bcb205",
"#Z c #838383",
"#` c #a2a207",
"$  c #a7994b",
"$. c #2f2b16",
"$+ c #1e1e0d",
"$@ c #c4c49e",
"$# c #ebc216",
"$$ c #423c22",
"$% c #2a2921",
"$& c #807b54",
"$* c #44402e",
"$= c #978840",
"$- c #1c1b15",
"$; c #8b7b33",
"$> c #917e29",
"$, c #d9d9a9",
"$' c #1e1d17",
"$) c #b6a241",
"$! c #65650c",
"$~ c #3e361c",
"${ c #a4a4a4",
"$] c #3c3822",
"$^ c #d3b121",
"$/ c #a19107",
"$( c #8a8a06",
"$_ c #3d3d0c",
"$: c #9b821a",
"$< c #696917",
"$[ c #c9c908",
"$} c #4c3117",
"$| c #e1e1e1",
"$1 c #9a9874",
"$2 c #e4b705",
"$3 c #dab008",
"$4 c #717108",
"$5 c #6a6a08",
"$6 c #646412",
"$7 c #d4d402",
"$8 c #141414",
"$9 c #1d1d1d",
"$0 c #9b8c43",
"$a c #171717",
"$b c #a2a2a2",
"$c c #12110d",
"$d c #35310b",
"$e c #969696",
"$f c #21211e",
"$g c #5b5b5b",
"$h c #9b9b0f",
"$i c #52520e",
"$j c #fcfcfc",
"$k c #d9d904",
"$l c #11110e",
"$m c #8d771f",
"$n c #ded385",
"$o c #b5b504",
"$p c #4b4b4b",
"$q c #24231a",
".|.|.|.|.|.|.|.|.|.|.|.|.|.|.|.|.|.|.|.|.|.|.|.|.b#D@& M+l@B$a#G#G$a@B+l M@&#D.b.|.|.|.|.|.|.|.|.|.|.|.|.|.|.|.|.|.|.|.|.|.|.|.|",
".|.|.|.|.|.|.|.|.|.|.|.|.|.|.|.|.|.|.|.|.|+#@@@-+p@/@/@/@/@/@/@/@/@/@/@/@/@/+p+p@-@@+#.|.|.|.|.|.|.|.|.|.|.|.|.|.|.|.|.|.|.|.|.|",
".|.|.|.|.|.|.|.|.|.|.|.|.|.|.|.|.|.|@c@8.X@/@/@/ X  #@@Z.R#m@'#3#3@'#m.R@Z#@+a X@/@/+p.X@8@c.|.|.|.|.|.|.|.|.|.|.|.|.|.|.|.|.|.|",
".|.|.|.|.|.|.|.|.|.|.|.|.|.|.|.| C# +~@/@/.u#n#6.~@1@1@1@1@1@1@1@1@1@1@1@1@1@1.~#6+A.u@/+p+~+r C.|.|.|.|.|.|.|.|.|.|.|.|.|.|.|.|",
".|.|.|.|.|.|.|.|.|.|.|.|.|.|.|#~+N@/@/#s+X.!@1@1@1@1@1@1@1@1@1@1@1@1@1@1@1@1@1@1@1@1.!+X.`@/+p+N${.|.|.|.|.|.|.|.|.|.|.|.|.|.|.|",
".|.|.|.|.|.|.|.|.|.|.|.|.|$|$p@/@/@P (@1@1@1@1@1@1@1@1@1@1@1@1+^+^@1@1@1@1@1@1@1@1@1@1@1@1 (.d@/+p$p$|.|.|.|.|.|.|.|.|.|.|.|.|.|",
".|.|.|.|.|.|.|.|.|.|.|.| .+~@/+@ c#-@1@1@1@1@1@1@1@1@1@1#3@Z+:@`@`+:@Z#3@1@1@1@1@1@1@1@1@1@1#- c#k@/#w ..|.|.|.|.|.|.|.|.|.|.|.|",
".|.|.|.|.|.|.|.|.|.|.|+6@Y@/ W L@1@1@1@1@1@1@1@1@1.!.a 2#R$8$8$8$8$8$8#R 2#H.!@1@1@1@1@1@1@1@1@1 L j@/@/+6.|.|.|.|.|.|.|.|.|.|.|",
".|.|.|.|.|.|.|.|.|$j@(@/#G#1@1@1@1@1@1@1@1@1+z$@#F$f.p.p.p@q@q@q@q@q.p.p.p$8$f#F$@+z@1@1@1@1@1@1@1@1#1@Y+p@($j.|.|.|.|.|.|.|.|.|",
".|.|.|.|.|.|.|.|$j+5@/#].t.>.>.>.>.>.>.>#M@T s.p@q@q$a$a$a$a$a$a$a$a$a$a$a@q@q.p$8 s@T$,.>.>.>.>.>.>.>.t+/+p+5$j.|.|.|.|.|.|.|.|",
".|.|.|.|.|.|.|.|@(@/#o+] U U U U U+%$1 x.p.p@q$a$a$a+1+1+1+1+1+1+1+1+1+1+1$a$a$a@q.p.p$8 x@y h U U U U U+]+)+p@(.|.|.|.|.|.|.|.|",
".|.|.|.|.|.|.|+6@/@g+v@O@O@O#x@v O#R$8.p@q$a$a+1+1+1#C#C#C#C#C#C#C#C#C#C#C+1+1+1$a$a@q.p$8$8+S O.z#x@O@O@O+v.f+p+6.|.|.|.|.|.|.|",
".|.|.|.|.|.|#D@Y#G.F+L+L+L+L.S$8$8.p@q$a$a+1+1#C#C#C.E.E.E.E.E.E.E.E.E.E.E#C#C#C+1+1$a$a@q.p$8$8@`.S+L+L+L+L.F@Y@/#D.|.|.|.|.|.|",
".|.|.|.|.|.-+~@Y.h@n@n@n@n.7$%$8.p$a$a+1+1#C#C.E.E.E.E#w#w+~+~+~+~+~#w#w.E.E.E.E#C#C+1+1$a$a.p$8$8.0.7@n@n@n@n.h@/#w.-.|.|.|.|.|",
".|.|.|.|.|$p@/.8.A.A.A.A.A k$8@q$a$a+1+1#C.E.E.E#w+~+~$9$9$9$9$9$9$9$9$9+~+~#w.E.E.E#C+1+1$a$a@q$8$8$&.A.A.A.A.A#%@/$p.|.|.|.|.|",
".|.|.|.|.Q@/$' y 6 6 6 6$n#o@q$a$a+1#C#C.E.E#w+~$9$9$9@l@l@l@l@l@l@l@l@l$9$9$9+~#w.E.E#C#C+1$a$a@q$8#o$n 6 6 6 6 y$-+p$b.|.|.|.|",
".|.|.|.%@o@Y K D D D D D+t@q$a$a+1 T.N.N.O@~ _ _.1.1.1#e#e#e#e#e#e#e#e#e Y@l@l$9$9+~#w.E.E#C+1$a$a@q$8+t D D D D D K@/@o.%.|.|.|",
".|.|.|# @/ i.:@R@R@R@R#S.p$a$a+1#C#j@R@R@R@R@R@R@R@R@R@R@R@R@R@R@R@R@R@R o.w.w@l@l$9$9#w.E.E#C+1$a$a.p$8+9@R@R@R@R.:.m+p+r.|.|.|",
".|.|.%+~@Y.y@|@|@|@|.4#[$a$a+1#C.E r@|@|@|@|@|@|@|@|@|@|@|@|@|@|@|@|@|@|+  +.w.w@l@l$9$9+~.E.E#C+1$a$a.p#U.4@|@|@|@|#{@/#w.%.|.|",
".|.|@r@/$] : : : : :.r@q$a+1#C.E.E+! : : : : : : : : : : : : : : : : : :@.@o#d +.w.w@l$9$9+~.E.E#C+1$a@q$8.r : : : : :.@+p@r.|.|",
".|.|.X@Y@S#b#b#b#b#_.P$a+1+1#C.E#w 3#b#b#b#b#b#b#b#b#b#b#b#b#b#b#b#b#b#b+h+N@o@o#d +.w@l$9$9#w.E#C+1+1$a.p$q#}#b#b#b#b$ @/+8.|.|",
".|.K@/@I.L@>@>@>@>.]@q$a+1#C.E#w$9#N S#P@:@<@>@>@>@>@>@>@>@>@>.n+&.+$*+[ 9+c+N+N@o#d +.w@l$9$9#w.E#C+1$a@q.p+u@>@>@>@>.L.3+p.K.|",
".|.T@/./+K+K+K+K@7 J$a+1#C.E.E+~$9@l.w +#d$0+K+K+K+K+K+K+K+K+K#;+U+f+f+(+(+c+c+N+N@o#d +.w@l$9+~.E.E#C+1$a.p#]+i+K+K+K+K.*@/.T.|",
".|+=@Y+H A A A A#B@q$a+1#C.E#w$9@l@l.w#d@o.x A A A A A A A A A$=@B@B@B+U+f+(+(+c+N+N@o#d.w@l@l$9#w.E#C+1$a@q$8+k A A A A$)@/.X.|",
"@C@/.[@u P P P@%.p$a+1#C.E.E+~$9@l.w +@o+N+g P P P P P P P P P@H#J#J#J@B@B+U+(+(+c+N+N@o +.w@l$9+~.E.E#C+1$a.p$8@% P P P@u$l+p+_",
" .@/ [@f@f@f@L@#@q$a+1#C.E#w$9@l.w.w#d@o+N$;@f@f@f@f@f@f@f@f@f+` H H H#J#J@B+U+(+(+c+N@o#d.w.w@l$9#w.E#C+1$a@q$8.U@L@f@f@f+2+p .",
"#Z@Y+J+O+O+O$>$8@q$a+1#C.E+~$9@l.w +@o+N+c._+O+O+O+O+O+O+O+O+O@d+j+j H H#J#J@B+U+(+c+c+N@o +.w@l$9+~.E#C+1$a@q$8@`@z+O+O+O#V@/+6",
" M@Y@A.M.M#c B.p$a+1#C.E.E+~$9@l.w#d@o+N+c+R.M.M.M.M.M.M.M.M.M.q.g#p+j+j H#J#J@B+f+(+c+N@o#d.w@l$9+~.E.E#C+1$a.p$8###c.M.M.}@/$g",
"#2@Y@h@b@b@b@j.p$a+1#C.E#w$9@l.w +@o+N+N+c@9@b@b@b@b@b@b@b@b@b@)#9#9.g+j+j H#J@B+U+(+c+N+N@o +.w@l$9#w.E#C+1$a.p$8$.@b@b@b@h@/#2",
"+f@Y@k.s.s.s#W.p$a+1#C.E#w$9@l.w +@o+N+c+(.;.s.s.s.s.s.s.s.s.s 7+-+-#9.g+j H H#J@B+f+(+c+N@o +.w@l$9#w.E#C+1$a.p$8.=.s.s.s$^@/+(",
"$a@Y#!.#.#.#+s@q$a+1#C.E+~$9@l.w +@o+N+c+(+B.#.#.#.#.#.#.#.#.#@3 @+-+-#9#p+j H#J@B+f+(+c+N@o +.w@l$9+~.E#C+1$a@q$8.5.#.#.##!@/@q",
"#G@Y$##,#,#,#v@q$a+1#C.E+~$9@l.w#d@o+N+c+($m#,#,#,#,#,#,#,#,#,#I#< @+-#9.g+j H#J@B+U+(+c+N@o#d.w@l$9+~.E#C+1$a@q$8#O#,#,#,@s@/@Y",
"#G@Y@ @Q@Q@Q+m@q$a+1#C.E+~$9@l.w#d@o+N+c+(@x@Q@Q@Q@Q@Q@Q@Q@Q@Q@V@- @+-#9.g+j H#J@B R.j f+3.i N.w@l$9+~.E#C+1$a@q$8+m@Q@Q@Q@ @/@Y",
"$a@Y.9 p p p@$@p$a+1#C.E+~$9@l.w#d@o+N+c+(@t p p p p p p p p p$:#< @+-#9.g+j H#J@B$$ p p p p$3.w@l$9+~.E#C+1$a@q#h@$ p p p$2@/@q",
"+f@Y#X # # # #.v$a+1#C.E+~$9@l.w +@o+N+c+(@w # # # # # # # # #$} @+-+-#9#p+j H#J@B+E # # # #.).w@l$9+~.E#C+1$a@q.V # # # ##X@/+(",
"#2@Y#i $ $ $ $#|$a+1#C.E#w$9@l.w +@o+N+c+(+< $ $ $ $ $ $ $ $ $+}+-+-#9.g+j H H#J@B@! $ $ $ $#/.w@l$9#w.E#C+1$a.p | $ $ $ $++@/#2",
" M@Y#y % % % %#*$a+1#C.E#w$9@l.w +@o+N+N+c+Q % % % % % % % % %@_#9#9.g+j+j H#J@B+U$~ % % % %@i.w@l$9#w.E#C+1$a.p+Z % % % %.(@/$g",
"#Z@Y#g & & & &+w$a+1#C.E.E+~$9@l.w#d@o+N+c#E & & & & & & & & &. .g#p+j+j H#J#J@B+f / & & & &#0@l$9+~.E.E#C+1$a.p d & & & &+Y@/+6",
" .@Y$d * * * *@e@q$a+1#C.E+~$9@l.w +@o+N+c@; * * * * * * * * * V+j+j H H#J#J@B+U+($/ * * * *.^@l$9+~.E#C+1$a@q$8@e * * * *#'@/ .",
"@C@/$c = - - - -#z$a+1#C.E#w$9@l.w.w#d@o+N+y - - - - - - - - - g H H H#J#J@B+U+(.Y - - - - -#Y@l$9#w.E#C+1$a@q@M - - - - =#q+p+_",
".|+=@Y#) ; ; ; ;.,$a+1#C.E.E+~$9@l.w +@o@E@, ; ; ; ; ; ; ; ; ; >#J#J#J@B@B+U#5.k , ; ; ; ; ;+T$9+~.E.E#C+1$a.p.& ; ; ; ;+;@/.X.|",
".|.T@Y#& ; ; ; ;+e@q$a+1#C.E#w$9@l#r e@a E ; ; ; ; ; ; ; ; ; ; ;+,@K#^#^ 1 F ' ; ; ; ; ; ; ;+T$9#w.E#C+1$a@q$8#8 ; ; ; ;$5@/.T.|",
".|.K@/@X ) ; ; ;+7.p$a+1#C.E.E+~$9+T ; ; ; ; ; ; ; ; ; ; ; ; ; ; ; ; ; ; ; ; ; ; ; ; ; ; ; ;$k+~.E.E#C+1$a.p$8.6 ; ; ; ).I@/.K.|",
".|.|.X@Y+C ; ; ;+F.p@q$a+1#C.E#w$9$k ; ; ; ; ; ; ; ; ; ; ; ; ; ; ; ; ; ; ; ; ; ; ; ; ; ; ; ;$k#w.E#C+1$a@q.p$8+F ; ; ; l@/+8.|.|",
".|.|$e@Y$_ ; ; ;.J n.p$a+1+1#C.E#w$k ; ; ; ; ; ; ; ; ; ; ; ; ; ; ; ; ; ; ; ; ; ; ; ; ; ; ; ;$k.E#C+1+1$a.p$8#7.J ; ; ;@W@/@r.|.|",
".|.|.%+~@Y+q ; ; ; 8$8@q$a+1#C.E.E#T.Z.Z.H }@] ; ; ; E$h$h.C ; ; ; ;.C$h$h E ; ; ;@].H.Z.Z#$#a.E#C+1$a@q$8$8$! ; ; ; t@/#w.%.|.|",
".|.|.|# @Y@} , ; ; ;#Q+/$a$a+1#C.E.E+~$9$9@l E ; ; ;$[@o@o I ; ; ; ;$<@o#d m ; ; ; E$9$9+~.E.E#C+1$a$a.p n+G ; ; ; ,+>@/# .|.|.|",
".|.|.|.%@o@Y@0 ; ; ; ;+b@5$a$a+1#C.E.E#w$9$9 E ; ; ; m + ++D ; ; ; ;+D +.w m ; ; ; E$9#w.E.E#C+1$a$a.p Z+. ; ; ; ;+P@/@o.%.|.|.|",
".|.|.|.|.Q@Y$+.. ; ; ; ;.e a$a$a+1#C.E.E#w+~ E ; ; ; m.w.w#A ; ; ; ;+d.w@l m ; ; ;#4#w.E.E#C+1$a$a@q+0.e ; ; ; ;..@X@/.Q.|.|.|.|",
".|.|.|.|.|$p@Y 5 ; ; ; ; ;.'+x$a$a+1#C#C.E.E#L ; ; ;+{@l@l#u ; ; ; ;#t@l$9+{ ; ; ;#L.E#C#C+1$a$a@q@^.' ; ; ; ; ;@D@/$p.|.|.|.|.|",
".|.|.|.|.|.-+~@Y@[ ; ; ; ; ;+n@U$a$a+1+1#C.E#L ; ; ;@m$9$9.o ; ; ; ;.o$9+~@m ; ; ;#L#C+1+1$a$a@q z+n ; ; ; ; ;$(@/+~.-.|.|.|.|.|",
".|.|.|.|.|.|#D#G#( Q ; ; ; ; ; ,.G$a$a+1+1#C#L ; ; ;@m#w#w#: ; ; ; ;$6#w.E@m ; ; ;#L+1+1$a$a.p@G , ; ; ; ; ;.D#(@Y#D.|.|.|.|.|.|",
".|.|.|.|.|.|.|#Z@Y#+ ` ; ; ; ; ; ;.l+M$a$a+1#L ; ; ;@m.E.E@+ ; ; ; ;@+.E.E < ; ; ;#L$a$a@q q#` ; ; ; ; ; ; `#+@/+6.|.|.|.|.|.|.|",
".|.|.|.|.|.|.|.| G@Y.$ ` ; ; ; ; ; ;+o+'@q$a#L ; ; ; <#C#C u ; ; ; ;#.#C#C+$ ; ; ;#L@q.p#>+o ; ; ; ; ; ; `.$@/@(.|.|.|.|.|.|.|.|",
".|.|.|.|.|.|.|.|$j#f@Y#+@2 ; ; ; ; ; ;@J 4.p#L ; ; ;+$+1+1.B ; ; ; ;@*+1+1+$ ; ; ;#L.p@4@J ; ; ; ; ; ;@N#+@/+5$j.|.|.|.|.|.|.|.|",
".|.|.|.|.|.|.|.|.|$j G@Y#(@[ ; ; ; ; ; ; v$i#L ; ; ;+$$a$a.{ ; ; ; ;+I$a$a+$ ; ; ;#L$i v ; ; ; ; ; ;$(#(@/@($j.|.|.|.|.|.|.|.|.|",
".|.|.|.|.|.|.|.|.|.|.|#Z#G@Y 5 0 ; ; ; ; ; ' ! ; ; ; w#K#K@6 ; ; ; ; 8#K#K w ; ; ; ! ~ ; ; ; ; ; 0@D@Y@Y+6.|.|.|.|.|.|.|.|.|.|.|",
".|.|.|.|.|.|.|.|.|.|.|.| .+~@Y@X@0 , ; ; ; ; ; ; ; ; ; ; ; ; ; ; ; ; ; ; ; ; ; ; ; ; ; ; ; ; ,+P@X@/+~ ..|.|.|.|.|.|.|.|.|.|.|.|",
".|.|.|.|.|.|.|.|.|.|.|.|.|$|$p@Y@Y@}#l ; ; ; ; ; ; ; ; ; ; ; ; ; ; ; ; ; ; ; ; ; ; ; ; ; ;#l+>@Y@/$p$|.|.|.|.|.|.|.|.|.|.|.|.|.|",
".|.|.|.|.|.|.|.|.|.|.|.|.|.|.|#~+N@Y@Y@F l ) ; ; ; ; ; ; ; ; ; ; ; ; ; ; ; ; ; ; ; ; ) l.W@Y@/+N#~.|.|.|.|.|.|.|.|.|.|.|.|.|.|.|",
".|.|.|.|.|.|.|.|.|.|.|.|.|.|.|.| C# $9@Y@Y+W.c$o { ; ; ; ; ; ; ; ; ; ; ; ; ; ; {$o@{+W@Y@/$9#  C.|.|.|.|.|.|.|.|.|.|.|.|.|.|.|.|",
".|.|.|.|.|.|.|.|.|.|.|.|.|.|.|.|.|.|@c+4+=@/@Y@Y b+*$4.2@=$7#=+V+V#=$7@=.2$4 ] b@Y@/@/+=@8@c.|.|.|.|.|.|.|.|.|.|.|.|.|.|.|.|.|.|",
".|.|.|.|.|.|.|.|.|.|.|.|.|.|.|.|.|.|.|.|.|+#@@+8@/@Y@Y@Y@Y@Y@Y@Y@Y@Y@Y@Y@Y@Y@/@/+8@@+#.|.|.|.|.|.|.|.|.|.|.|.|.|.|.|.|.|.|.|.|.|",
".|.|.|.|.|.|.|.|.|.|.|.|.|.|.|.|.|.|.|.|.|.|.|.|.b#D+|+5.<#J+1 ^ ^+1#J.<+5+|#D.b.|.|.|.|.|.|.|.|.|.|.|.|.|.|.|.|.|.|.|.|.|.|.|.|",
};